<svg xmlns="http://www.w3.org/2000/svg" width="5333.333" height="5333.333"><path d="M0 40000h40000V0H0z" style="fill:#fff;fill-opacity:1;fill-rule:nonzero;stroke:none" transform="matrix(.13333 0 0 -.13333 0 5333.333)"/><path d="M30194.6 26130.3c1353 838.8 1765.7-1803.4 2604.4-3156.4 838.7-1353.1 2874.9-1910.1 1521.9-2748.8s-3637.3 260.9-4753 1396.4c-1622.2 1651-726.3 3670.1 626.7 4508.8M4373.66 21590.4c-1676.35 1972.9-620.38 3107.7 1806.26 3689 2510.65 601.4 1213.31 7024 2854.16 5802.8 2073.32-1543.2 1788.82-5482.7 1143.22-7423.6-943.34-2836-2942.04-5436-5803.64-2068.2" style="fill:#f5ecd8;fill-opacity:1;fill-rule:nonzero;stroke:none" transform="matrix(.13333 0 0 -.13333 0 5333.333)"/><path d="M38409.6 10827.7c0-630.4-112.8-1263.7-329.3-1836.8-129.9-343.9-313.4-683.7-544-983.9-230.7-300.1-508.5-560.6-826.4-745.6-583.2-339.3-1235.2-535.6-1909.4-656.9-674.4-121.3-1371.1-167.4-2043.9-205.9-298.4-17.2-597.7-31.4-897.4-41.3-299.5-9.9-599.4-15.5-899.2-15.5-389.1 0-778.1 9.6-1166.1 31.5-388 22.1-775 56.6-1160 106.7-261.4 33.9-522.1 72.8-782.1 115.2-260.1 42.6-519.6 88.6-778.5 137.4-330.3 62.3-659.9 129-989 197.8-329.3 68.8-658.1 139.7-987 210.7-328.8 71.1-657.8 141.9-987.1 210.9-329.2 68.8-659 135.4-989.1 197.8-106.2 20-212.8 40.8-320.9 61.7-306.4 59.7-619.6 120.7-933.3 166.7-313.6 46.1-628.2 77.3-937.1 77.3-212.5 0-422.4-14.7-627.9-49.4-205.3-34.7-406.2-89.5-600.5-169.5-81.6-33.6-161.6-71-240.6-110.4-79.2-39.3-157.6-80.8-236-122-96.2-50.8-192.5-101.5-290.4-148.7s-197.4-91-299.8-127.5c-256.4-91.2-785.3-221-785.3-221-.7-.1-743.5-187-1111.7-293.1-105.9-30.4-210.2-61.1-315.8-92.3-170.6-50.6-339.7-101.4-510.1-152.6-169.3-51.1-340.3-102.6-509.9-152.8l-34.3-10.1c-722.5-214.1-1450.5-429.6-2185.9-605.8-735.4-176.1-1477.9-312.8-2229.8-368.9-167.2-12.5-334.7-18.4-502.7-18.4-572.14 0-1147.02 69.4-1712.94 188.3-565.76 118.9-1122.4 287-1657.92 484.6-605.76 223.5-1209.12 496.8-1771.52 832.2-562.4 335.3-1083.68 732.5-1525.6 1203.8-448.96 478.9-770.88 1068.3-1001.28 1700.5-230.4 632.3-369.44 1307.5-452.96 1957.9-52.48 408.8-89.44 821.9-108 1236.2-9.28 203.3-13.92 406.9-13.92 610.5 0 723.7 59.68 1446.8 193.44 2153.5 72.96 384.9 164.48 799.3 315.52 1177.6 151.04 378.2 361.6 720.3 672.8 960.8s685.12 376.5 1079.36 458.9c394.4 82.5 808.8 111.5 1201.12 138.5l14.56 1 13.92.9c252.64 17.3 518.24 28.4 789.6 39.6 733.92 30.4 1511.36 62.7 2203.68 226.8 692.16 164 1299.2 459.9 1692.34 1017.5 191.5 271.5 346.5 560.1 474.7 861.4 128.2 301.5 229.3 615.5 312.8 937.8 78.2 302.1 141.3 611.2 196.3 924 55.2 312.8 102.7 629.3 150.1 945.7 47.4 316.2 94.7 632.4 149.8 944.8 55 312.5 117.7 621.3 196 922.8 76.4 294.8 169.1 584.6 272.1 871.2 103.1 286.5 216.3 569.7 334.3 851.2 93.9 224.1 190.5 446.8 287.2 669.7 96.4 222.6 192.9 445.1 286.4 668 258 616.3 519 1238.4 814.8 1841 34.4 70.1 69.3 139.8 104.7 209.3 268.9 528.1 567.8 1038.8 918.7 1514 117 158.4 242.7 312.8 377 460.5 124.9 138.1 257.6 270.4 396.4 394.9 287.9 257.6 604.2 481.4 944.5 653.3 569 287 1182.7 491.5 1817.8 624.1 635 132.7 1291.2 193.6 1944.9 193.6 306.8 0 613-13.4 916.4-39 303.2-25.8 603.5-63.7 898.4-112.8 897.7-149.6 1769.9-531.8 2552-1060.3 782-528.3 1474.2-1202.7 2012.1-1936.7 259.1-353.4 513.3-733.2 712.5-1134 199-400.8 343.4-822.6 382.4-1259.9 9.8-108.9 14.2-217.6 14.2-325.9 0-236.8-21.9-472-59.5-705.9-49.1-304-124.9-605.9-214.1-907.1-89.2-301.1-192-601.2-294.7-901.7-103.2-302.3-206.7-604.7-296.6-908.5-90.1-303.8-166.7-609.4-216.5-917.6-26.1-161.8-39-328.5-39-496.8 0-699.7 222.4-1429.1 642.5-1964.6 264.7-337.3 568.7-637.6 896.3-914.6s678.8-530.6 1038.1-774.7c221.1-150.3 445.5-297 668.8-443.1 222.1-145.1 443.9-290.2 661.1-437.7 85-57.8 170-116.8 254-176 241.1-170.1 478.4-345.9 713.7-524.7 235.2-178.5 468.5-360 701.6-541.2 233.1-181.3 466.4-362.8 701.6-541.3 235.2-178.6 472.5-354.4 713.8-524.7 241.1-170 485.3-337.9 729.1-505.6 439.4-302.2 879.5-604.8 1306.2-923.3 426.8-318.7 840-653.1 1226.3-1019.4 250.7-237.6 489.9-500.5 694.4-785.6 112.5-156.8 214.2-320.3 301.9-490.2 71.5-139.2 133.6-282.6 183.8-429.9 167.9-491.9 249-1024.4 249-1558.9" style="fill:#f5ecd8;fill-opacity:1;fill-rule:nonzero;stroke:none" transform="matrix(.13333 0 0 -.13333 0 5333.333)"/><path d="M9957.12 13730.6H5334.79v1974.5h4622.33zM16783.8 16658.2h-4622.3v1974.4h4622.3zM30464.6 15151.2h-4622.3v1974.4h4622.3zM24105.1 27530.2h-4622.3v1974.5h4622.3zM16783.8 32223.5V30249h-2823.3c268.9 528.1 567.8 1038.8 918.7 1514 117 158.4 242.7 312.8 377 460.5z" style="fill:#f0dfbf;fill-opacity:1;fill-rule:nonzero;stroke:none" transform="matrix(.13333 0 0 -.13333 0 5333.333)"/><path d="M38409.6 10827.7c0-45.1-.6-90.4-1.8-135.5-1.1-42.8-2.7-85.3-4.8-128-26.8-542.1-136.3-1080-322.7-1573.3-75.7-200.2-169.4-399.1-280.3-589.5-25.8-44.8-52.8-89.1-80.8-132.8-57.1-89.7-118.1-177.2-182.9-261.6-230.7-300.1-508.5-560.6-826.4-745.6-223.5-129.9-457.1-239-698.1-330.7-40.9-15.8-81.9-30.9-123.3-45.4-350.6-124.2-715.9-213.9-1088-280.8-674.4-121.3-1371.1-167.4-2043.9-205.9-298.4-17.2-597.7-31.4-897.4-41.3-299.5-9.9-599.4-15.5-899.2-15.5-389.1 0-778.1 9.6-1166.1 31.5-388 22.1-775 56.6-1160 106.7-261.4 33.9-522.1 72.8-782.1 115.2-260.1 42.6-519.6 88.6-778.5 137.4-330.3 62.3-659.9 129-989 197.8-329.3 68.8-658.1 139.7-987 210.7-328.8 71.1-657.8 141.9-987.1 210.9-329.2 68.8-659 135.4-989.1 197.8-106.2 20-212.8 40.8-320.9 61.7-306.4 59.7-619.6 120.7-933.3 166.7-313.6 46.1-628.2 77.3-937.1 77.3-212.5 0-422.4-14.7-627.9-49.4-205.3-34.7-406.2-89.5-600.5-169.5-81.6-33.6-161.6-71-240.6-110.4-79.2-39.3-157.6-80.8-236-122-96.2-50.8-192.5-101.5-290.4-148.7s-197.4-91-299.8-127.5c-256.4-91.2-785.3-221-785.3-221-.7-.1-743.5-187-1111.7-293.1-105.9-30.4-210.2-61.1-315.8-92.3-170.6-50.6-339.7-101.4-510.1-152.6-169.3-51.1-340.3-102.6-509.9-152.8l-34.3-10.1c-112.6-33.5-225.6-66.9-338.5-100.2-145.8-42.9-291.9-85.7-438.3-128-466.9-134.9-936.5-264.3-1409.1-377.6-735.4-176.1-1477.9-312.8-2229.8-368.9-167.2-12.5-334.7-18.4-502.7-18.4-572.14 0-1147.02 69.4-1712.94 188.3-565.76 118.9-1122.4 287-1657.92 484.6-80.64 29.8-161.28 60.5-241.76 92-104.8 41.1-209.44 83.9-313.76 128-416.48 177-826.08 379.7-1216 612.2-562.4 335.3-1083.68 732.5-1525.6 1203.8-103.84 110.7-200.8 227.4-291.36 349.1-31.52 42.1-62.08 84.8-92 128-257.12 372.8-459.2 788-617.92 1223.4-111.68 306.4-201.76 622.9-274.72 941.8-9.76 42.7-19.04 85.2-28.16 128-63.52 296.9-112.48 595-150.08 888.1-52.48 408.8-89.44 821.9-108 1236.2H37976.8c71.5-139.2 133.6-282.6 183.8-429.9 167.9-491.9 249-1024.4 249-1558.9" style="fill:#f6bcaa;fill-opacity:1;fill-rule:nonzero;stroke:none" transform="matrix(.13333 0 0 -.13333 0 5333.333)"/><path d="M7189.15 24828.4s-502.72-377.1-359.09-1531.5c143.64-1154.5 991.07-2246.1 1062.89-2461.5 71.82-215.5 344.72-1062.9 143.64-1752.4-201.09-689.4 129.26-1536.9 502.71-1694.8 373.45-158 861.8 416.5 775.63 1278.3-86.18 861.8-23.03 1632 172.36 2068.3 646.31 1443.5-473.99 2599.8-904.9 3088.1-430.9 488.4-833.07 1264-1393.24 1005.5" style="fill:#6bcca7;fill-opacity:1;fill-rule:nonzero;stroke:none" transform="matrix(.13333 0 0 -.13333 0 5333.333)"/><path d="M12205.8 22472s-229.8 445.2-919.3 172.3c-689.4-272.9-1443.43-1680.5-1612.23-2786.5-168.81-1105.9-499.17-1062.8-628.44-1781s351.98-1177.8 628.44-1149.1 1123.93 531.5 1023.33 1752.3c-100.5 1220.9 57.5 1580 617.6 1967.8 560.2 387.8 1177.8 1192.2 890.6 1824.2M4711.68 23276.3c-440.48-231.8-775.62-818.7 114.91-1910.3s804.35-861.8 919.26-1608.7 158-1206.5 660.71-1637.4c502.72-430.9 933.63-416.6 1134.71-904.9 201.09-488.4 703.81-114.9 660.72 129.2-43.09 244.2 359.08 861.9-675.08 2384.4-1034.17 1522.5-855.97 1436.3-945.07 1996.5s-778.54 2125.8-1870.16 1551.2" style="fill:#8ad6b9;fill-opacity:1;fill-rule:nonzero;stroke:none" transform="matrix(.13333 0 0 -.13333 0 5333.333)"/><path d="M5334.73 22653.5c0-.1.03-.2.06-.2-.03 0-.06.1-.06.2m3513.55-8652.3c-48.07 0-87.87 38.1-89.66 86.5-94.01 2573.1-3305.49 8093.9-3563.99 8464.7-12.65 10-22.76 23.5-28.69 39.8-19.67 54.2 11.28 89.8 21.21 99.4 25.46 24.7 63.56 32 96.4 18.7 32.27-13 39.93-16 209.59-300.2 114.76-192.3 259.06-442.6 406.31-704.9 293.94-523.6 743.12-1349.3 1213.78-2309.3C7917.25 17756 8886.5 15505 8938.05 14094.3c1.81-49.6-36.88-91.2-86.44-93-1.11-.1-2.23-.1-3.33-.1M9128.55 14216.7c-2.9 0-5.82.1-8.77.4-49.36 4.7-85.47 48.6-80.71 98 334.97 3461.3 917.79 5413.1 1347.73 6441 472.7 1130.3 869.3 1431.2 886 1443.5 39.9 29.3 96.1 20.8 125.5-19.1 29.3-39.8 20.9-95.7-18.6-125.2-5.4-4-386.7-302.7-841.3-1402.1-420.2-1016.3-990.48-2944-1320.61-6355.4-4.5-46.4-43.57-81.1-89.24-81.1" style="fill:#6bcca7;fill-opacity:1;fill-rule:nonzero;stroke:none" transform="matrix(.13333 0 0 -.13333 0 5333.333)"/><path d="M8964.38 14001.2c-34.98 0-68.24 20.6-82.71 54.8-86.34 204.1-245.69 1104.4-320.36 2264-63.94 993.5-81.24 2432.6 199.56 3647.1 260.52 1126.6 20.02 2004.3-227.58 2542.1-269.2 584.8-605.08 907-608.44 910.2-35.94 34.1-37.52 90.9-3.48 126.9 34.05 36 90.71 37.6 126.8 3.6 14.58-13.7 360.54-344.3 644.64-957.8 261.46-564.7 515.84-1485.5 242.99-2665.5-519.2-2245.3-30.72-5465.1 111.22-5800.6 19.31-45.7-2.05-98.4-47.69-117.7-11.43-4.8-23.29-7.1-34.95-7.1" style="fill:#8ad6b9;fill-opacity:1;fill-rule:nonzero;stroke:none" transform="matrix(.13333 0 0 -.13333 0 5333.333)"/><path d="M14168.5 10692.2v-128H2505.12c-9.76 42.7-19.04 85.2-28.16 128zM14741.9 8399v-128H3489.76c-31.52 42.1-62.08 84.8-92 128zM38407.8 10692.2c-1.1-42.8-2.7-85.3-4.8-128H26260v128zM37800 8401.4c-25.8-44.8-52.8-89.1-80.8-132.8H25085.4v132.8z" style="fill:#e0a393;fill-opacity:1;fill-rule:nonzero;stroke:none" transform="matrix(.13333 0 0 -.13333 0 5333.333)"/><path d="m12111 10488.4-1497.6 2293.1 107.2 70 1497.6-2293.1z" style="fill:#e0a393;fill-opacity:1;fill-rule:nonzero;stroke:none" transform="matrix(.13333 0 0 -.13333 0 5333.333)"/><path d="M11025.1 14919.1v-2156.6c0-707.1-573.2-1280.7-1280.74-1280.7H8546.64c-703.37 4.1-1272.81 576.3-1272.81 1280.7v2156.6z" style="fill:#cbd7f1;fill-opacity:1;fill-rule:nonzero;stroke:none" transform="matrix(.13333 0 0 -.13333 0 5333.333)"/><path d="M9207.98 11481.8c-396.6 240.6-661.7 676.5-661.7 1174.7v2262.6h-661.01v-2262.6c0-497.9 265.1-933.7 661.36-1174.7z" style="fill:#f5ecd8;fill-opacity:1;fill-rule:nonzero;stroke:none" transform="matrix(.13333 0 0 -.13333 0 5333.333)"/><path d="m17585 27945.1-2.1 4.7c1.3.9 2.7 1.7 4 2.7zm-574.4 1232.7c-1.8-1.2-3.7-2.4-5.5-3.6l-2.9 6zm584.8-1227.7c-8.3 2.4-573 1243.4-591.1 1237.4-711.2-235.2-1186.7-544.6-1557.9-1100.1-4-2.8 47.2-550.1 45.9-553.8 125.9-60.8 267.5-107.2 402.7-148.6 622.9-212.4 1204.7 210.7 1700.4 565.1M19973 24223.8c1.6 2.3 3.2 4.5 4.8 6.8l3.2-9zm-1014.3-2718.4c0 1.3-.1 2.4-.1 3.7l3.6 1.8zm-1029.9-469.2 1.4.6h1.2zm141.1 3714.2c-.6-1.8-1.3-3.4-1.9-5.1l-5 1.4zm-1158.5-3684.2h2.2c.5-.4 1-.8 1.4-1.2zm-420.7 1201.5-1.3-1.3 1.6 3.4zm3497.1 1961.4c-.6 1.8-2 3.2-3.8 3.7l-1917.9 525.1c-2.9.8-5.9-.8-6.9-3.5-90.2-241-180.2-481.8-280.6-713.8-10.8-24.9-21.6-49.7-32.7-74.4-91.7-205.4-192.3-403.3-309.7-587.8-131.4-206.6-283.6-396-446.1-577.1-162.6-181.1-335.7-353.9-508.8-526.7-1-1-1.6-2.1-1.8-3.4l-.1-2.1c-18.8-143.5-37.6-287.7-37.6-422.4 0-104.1 11.3-202.7 42.4-291 35.8-101.8 97.9-189.8 172.9-270.9 75.1-81 162.9-154.9 250.4-228.6 1-1 2.3-1.5 3.5-1.5l1020-29.6c.8 0 1.8.2 2.6.7l1033.4 474.5c2.1 1.1 3.4 3.2 3.4 5.6-2.4 66.1-4.8 132.2-4.8 202.4 0 133 8.6 280.5 42.7 470.6 26.3 145.3 67.1 315.2 123.1 493.4 45.9 146.1 101.9 297.8 168.1 446.1 14.7 32.6 29.8 65.3 45.5 97.6 86.4 178.6 188.3 349.1 297.9 515.8 109.4 166.6 226.9 329.3 344.1 492 1.2 1.6 1.5 3.6.8 5.3" style="fill:#f89b72;fill-opacity:1;fill-rule:nonzero;stroke:none" transform="matrix(.13333 0 0 -.13333 0 5333.333)"/><path d="M19987 24223.8c-117.2-162.7-234.7-325.4-344.1-492-109.6-166.7-211.5-337.2-297.9-515.8-15.7-32.3-30.8-65-45.5-97.6-954.1-73.8-1372 388.6-1553.6 847.8 11.1 24.7 21.9 49.5 32.7 74.4 100.4 232 190.4 472.8 280.6 713.8 1 2.7 4 4.3 6.9 3.5l1917.9-525.1c1.8-.5 3.2-1.9 3.8-3.7.7-1.7.4-3.7-.8-5.3" style="fill:#d67d52;fill-opacity:1;fill-rule:nonzero;stroke:none" transform="matrix(.13333 0 0 -.13333 0 5333.333)"/><path d="m22077.4 29172-.8.5 2.8-5.8c.1 1.3.3 2.6.4 3.9-.8.4-1.6.9-2.4 1.4" style="fill:#040606;fill-opacity:1;fill-rule:nonzero;stroke:none" transform="matrix(.13333 0 0 -.13333 0 5333.333)"/><path d="M22710.6 28174.6c0-139.7-33-279.2-88.2-435.1-38.2-107.8-87.2-223.5-141.4-343.2-54-119.3-113.2-242.5-172.5-365.7 7.2-497.6 13.9-1000-823.2-1106-60.3-7.5-125.1-13.1-193.9-16.8-68.8-3.6-141.6-5.4-218.3-5.4-452.9 0-1037.1 61.4-1686.9 153.6-649.9 92.2-1365.4 215-2080.6 337.8-1.6.3-2.9 1.2-3.8 2.5-201.3 307.5-402.9 615.2-585 963.5-165.9 317.3-316.3 669.3-316.3 1027.9 0 34.9 1.4 69.7 4.3 104.6 16.6 197.3 82.6 395.5 173 573.5 90.4 177.7 205.6 335.2 320.8 451 115.5 115.8 231 189.9 341.9 237.9s216.8 69.9 312.9 81.8c66.6 8 128.5 11.2 187.4 11.2 109 0 207.4-10.9 305.3-22.1 27.7 165.3 56.3 331.5 151.7 492 48.3 81.4 113.9 161.1 204.4 232.2 90.6 70.8 206.4 133.1 355.7 179.2 87.2 26.8 185.8 48.4 288.3 63.2 102.6 14.7 209 22.7 312 22.7 73 0 144.4-4 211.4-12.5s129.8-21.6 185.4-39.5c134.6-43.4 228-115.5 300.8-201.9 71.2-84.5 122.3-182.4 173-280 101 96 203.4 192 338.4 248 54.6 22.7 114.4 38.7 178.4 49.1 63.8 10.4 131.7 15.2 202.4 15.2 37 0 74.6-1.3 113-3.9 92.6-5.9 188.9-18.7 285.6-46.4 96.6-27.8 193.4-70.7 286.8-136.8 93.3-66 183.2-155.3 258.8-255.8 75.5-100.5 136.6-212.2 172.8-323.4 33.4-103.5 45.1-206.4 45.1-308.6 0-116.5-15.1-232.3-30.3-347.8-.8.4-1.6.9-2.4 1.4l-.8.5 2.8-5.8c.1 1.3.3 2.6.4 3.9 59.9-36.5 119.9-73.3 179.1-118.3 60.1-45.4 119.3-99.3 176.8-170.1 57.4-70.7 113.1-158.4 159.2-252.6 45.9-94.4 82.1-195.7 100.6-293.8 10.3-54.4 15.1-108 15.1-161.2" style="fill:#192543;fill-opacity:1;fill-rule:nonzero;stroke:none" transform="matrix(.13333 0 0 -.13333 0 5333.333)"/><path d="M22120.2 27324.3c0-724.8-190.3-1671.7-549.5-2332.1-195.7-359.6-441.4-634.3-701.1-839.1s-533.6-339.7-785.3-419.8c-210.2-66.9-405.3-95.5-588.5-95.5-126.2 0-247 13.6-363.3 37.7-119.1 24.7-233.3 60.2-344.2 103.2-188 73.1-366.4 168.2-526.7 292.2s-302.6 276.9-418.7 466.4c-116 189.1-205.6 414.5-273.5 645.6-67.6 231.2-113.4 468-141.9 680-32.3 241.1-42.1 450.5-42.1 646.2 0 148.8 5.6 289.6 11.2 430.3v.1l.2 1.3c19.2 284.8 38.4 570.2 94.1 837.6 55.7 267.5 148 517 313.3 730.2 165.2 213.5 403.5 390.3 684.3 523.1 280.9 132.8 604.6 221.7 940.6 259.3 126.6 14.3 255.1 21.2 383.4 21.2 246.7 0 493.3-25.6 726.2-73.8 144.8-29.9 284.3-68.6 415.5-115.5 131.1-46.9 253.8-101.9 365-164.5 247.5-139.2 437.6-315.5 570.2-549.8 132.7-234.2 207.9-526.5 226.3-897.7 3-60.3 4.5-122.6 4.5-186.6" style="fill:#f89b72;fill-opacity:1;fill-rule:nonzero;stroke:none" transform="matrix(.13333 0 0 -.13333 0 5333.333)"/><path d="M18290.9 27102.9c3.8-.5 7.5-1 11.3-1.6-1.9 3.3-3.6 6.7-5.6 10.1zm778.1 878.2c4-2.7 7.8-5.4 11.8-8-1 4.7-2.1 9.3-3 13.9zm1089.2 41.3c1.8 1.1 3.7 2.4 5.5 3.5l-8.3 2.4c.9-1.9 1.9-4 2.8-5.9m1272.7 51 2.4-1.4c1.1-.8 2.4-1.4 3.5-2.2.8 2.2 1.8 4.3 2.6 6.5z" style="fill:#040606;fill-opacity:1;fill-rule:nonzero;stroke:none" transform="matrix(.13333 0 0 -.13333 0 5333.333)"/><path d="M22332.2 27329.8c-16.7-122.8-61.2-253.2-119.6-387.2-58.5-134.1-83.5-344.2-155.6-481.5-1.3-2.4-4-3.7-6.8-2.9-2.5.8-4.3 3.2-4.1 6 13.9 240.4-19.5 553.2-19.5 743.8 0 20.6-.2 40.5-.5 59.8-1.8 99.2-8.2 181.5-26.7 254-18.8 72.6-49.6 135.6-100.5 196.8s-121.5 120.6-202.3 179.2c-79.8 57.7-169.4 114.8-259.8 172-50.1-127.1-101-254.8-178.1-343.6-39.3-45.2-85.4-80.4-140.8-106-55.5-25.6-120.1-41.3-196.5-48-26.5-2.3-54.5-3.6-83.3-3.6-68.3 0-141.6 6.9-211.9 22.3-70.2 15.3-137.6 39.2-193.7 73.3-68 41.2-119.9 97.4-163.4 160.6-42.2 61.4-76.8 129.6-110.9 197.6-146.8-95.5-294.8-191.2-445.4-219.2-35.2-6.4-70.4-9.3-105.1-9.3-58.1 0-114.7 8-167.2 19.9-52.7 11.8-101 27.6-142.3 43.5-53.7 20.5-96 41.3-132.1 61.9-31.5 17.9-58.9 35.8-85.3 53.9 10.4-47.2 20.2-99 23.5-201.6.7-17.3 1-36 1-55.8 0-109.1-12.3-251.4-74.9-361.8-37.1-65.4-91.5-119.5-153.6-161.6s-131.7-72-199-89.1c-57.3-14.6-113-19.8-167.7-19.8-70.4 0-139.4 8.8-207.9 17.9 71.6-128.2 142-259.4 132.7-452.7-4.8-98.8-30.4-213.7-71.1-324.3-40.6-110.5-96.3-216.6-161.1-297.6-64.9-81.1-139-137.1-217.6-180.3-78.4-43-161.3-73.6-243.7-103.8-2.8-1.2-6 .1-7.3 3-44.5 98.9-88.8 198.1-128.5 299.2-39.5 101.1-74.4 204.5-99.4 311.5-22.4 96.2-37.1 195.5-37.1 306.3 0 136-388 353.4-331.2 538.7 51.1 167 76.3 356.5 169.8 562.7 93.4 206.4 288.1 873.4 288.1 873.4s946.3 674.6 947.6 674.8l1927.6 299.6c208 24 914-209.1 989.5-219.5 126.9-17.7 455.5-760 559.7-812.1 1.4-.8 2.4-2 2.8-3.4l185-573.6c78.4-213.1 157.4-427.7 124.2-673.4" style="fill:#192543;fill-opacity:1;fill-rule:nonzero;stroke:none" transform="matrix(.13333 0 0 -.13333 0 5333.333)"/><path d="M20574.8 26169.5c-57.1-134.5-112.5-265.8-63.4-383.4 26.5-63.4 83.5-123.4 139.9-182.4 48-50.4 95.6-100.2 120.7-150.1 50.6-100.4 10.5-200.6-77.8-245.1-7.7-3.8-15.7-7.3-24.1-10.3-103.5-37-258.2-3.7-410.2 28.7-3.2.6-5.1 3.7-4.5 6.8.7 3.2 3.8 5.2 6.9 4.5 153.5-32.7 304.2-64.7 403.9-29.1 7.9 2.8 15.5 6.1 22.8 9.7 82.8 41.8 120.3 135.1 72.7 229.6-24.2 48-70.4 96.5-118.8 147.3-55.9 58.6-114.7 120.1-142.2 186-51.3 122.9 7 259.2 63.5 392.3 1.2 2.9 4.6 4.3 7.6 3 2.9-1.2 4.3-4.6 3-7.5" style="fill:#d67d52;fill-opacity:1;fill-rule:nonzero;stroke:none" transform="matrix(.13333 0 0 -.13333 0 5333.333)"/><path d="M20574.8 26169.5c-57.1-134.5-112.5-265.8-63.4-383.4v0c26.5-63.4 83.5-123.4 139.9-182.4v0c48-50.4 95.6-100.2 120.7-150.1v0c50.6-100.4 10.5-200.6-77.8-245.1v0c-7.7-3.8-15.7-7.3-24.1-10.3v0c-103.5-37-258.2-3.7-410.2 28.7-3.2.6-5.1 3.7-4.5 6.8.7 3.2 3.8 5.2 6.9 4.5v0c153.5-32.7 304.2-64.7 403.9-29.1v0c7.9 2.8 15.5 6.1 22.8 9.7v0c82.8 41.8 120.3 135.1 72.7 229.6v0c-24.2 48-70.4 96.5-118.8 147.3v0c-55.9 58.6-114.7 120.1-142.2 186v0c-51.3 122.9 7 259.2 63.5 392.3 1.2 2.9 4.6 4.3 7.6 3 2.9-1.2 4.3-4.6 3-7.5" style="fill:none;stroke:#d67d52;stroke-width:128;stroke-linecap:round;stroke-linejoin:round;stroke-miterlimit:10;stroke-dasharray:none;stroke-opacity:1" transform="matrix(.13333 0 0 -.13333 0 5333.333)"/><path d="M18955 25163c164.1 53.5 331.1 108.2 456.3 67.7 10.9-3.5 21.5-7.8 31.7-12.8 123.7-60.6 195.6-234.7 252.8-372.2 2.3-5.8 3.6-8.8 6-14.5 58.7-141.1 103.2-238.7 185.7-290.6 20.3-12.8 43.2-22.9 67.9-30.9 75.3-24.3 167.3-29.1 260.4-34 3.2-.1 5.6-2.9 5.4-6-.1-3.2-2.8-5.7-6-5.5-92.7 4.8-186.3 9.6-263.3 34.5-25.5 8.3-49.2 18.7-70.6 32.2-86.1 54.1-131.9 155.7-190.2 295.8-2.3 5.5-3.7 9-6 14.5-57.8 139.2-128.3 308-247.1 366.3-9.8 4.8-19.8 8.9-30.2 12.2-120.9 39.1-283.6-13.7-449.2-67.7-3-1-6.3.7-7.3 3.7-1 3.1.7 6.3 3.7 7.3" style="fill:#d67d52;fill-opacity:1;fill-rule:nonzero;stroke:none" transform="matrix(.13333 0 0 -.13333 0 5333.333)"/><path d="M18955 25163c164.1 53.5 331.1 108.2 456.3 67.7v0c10.9-3.5 21.5-7.8 31.7-12.8v0c123.7-60.6 195.6-234.7 252.8-372.2v0c2.3-5.8 3.6-8.8 6-14.5v0c58.7-141.1 103.2-238.7 185.7-290.6v0c20.3-12.8 43.2-22.9 67.9-30.9v0c75.3-24.3 167.3-29.1 260.4-34 3.2-.1 5.6-2.9 5.4-6-.1-3.2-2.8-5.7-6-5.5v0c-92.7 4.8-186.3 9.6-263.3 34.5v0c-25.5 8.3-49.2 18.7-70.6 32.2v0c-86.1 54.1-131.9 155.7-190.2 295.8v0c-2.3 5.5-3.7 9-6 14.5v0c-57.8 139.2-128.3 308-247.1 366.3v0c-9.8 4.8-19.8 8.9-30.2 12.2v0c-120.9 39.1-283.6-13.7-449.2-67.7-3-1-6.3.7-7.3 3.7-1 3.1.7 6.3 3.7 7.3" style="fill:none;stroke:#d67d52;stroke-width:128;stroke-linecap:round;stroke-linejoin:round;stroke-miterlimit:10;stroke-dasharray:none;stroke-opacity:1" transform="matrix(.13333 0 0 -.13333 0 5333.333)"/><path d="M26037.9 14576c0-100.6-5.4-198.1-17.1-291.7-64.6-518.2-317.3-917.9-667.7-1253.9-350.5-336.2-798.9-609-1254.7-873.8-52.5-30.4-105.8-61.1-158.4-91.5-51.5-29.7-106.7-61.7-157.9-91.5-80-46.4-158.7-92.5-238.1-139-464.6-272.2-924.3-541.3-1423.2-756-498.7-214.8-1037-374.9-1658.9-429.3-163-14.3-331.8-21.1-504.5-21.1-1255.8 0-2712.3 367.6-3614.7 975-105.3 70.9-203.2 145.1-294.1 221.9-90.8 76.8-175 156.3-252.9 237.8-276.3 288.8-475.4 602.9-628.8 914.1-13.9 28.1-27.4 56.4-40.5 84.6-132.3 282.4-229.1 560.5-314.2 813.3-8.8 26.1-17.5 51.8-26.1 77.3-8.7 25.9-16.3 48.6-24.8 73.9-34.4 102.1-67.4 198.5-99.2 290.4-31.7 91.8-62.3 179.3-91.7 263.5-75.7 217.1-142.7 409.1-200.2 589-57.4 180-105.2 347.8-142.4 516.1-36.8 166.4-63.3 333.6-84.4 507.7-21 173.9-36.5 355-51.2 549.1-5.6 74.9-11.4 154.1-17.2 233.5-6 84.3-12.6 173.7-19.5 264-23.3 307.8-52.9 651.6-138.2 1006.7-85.5 354.9-226.7 720.9-473.6 1073.3-53.3 76.1-111.5 151.6-173.9 226.4-62.6 74.7-129.3 148.9-199.4 222-254.4 266-553.9 521-863 760.7-10.3 8-20.5 15.8-30.8 23.7-299.2 230.7-606.2 446.8-888.6 644.6l-101.1 70.7c-346.3 242.1-654.7 457.9-938.4 677.6-283.7 219.9-542.58 443.7-789.46 701.6-3.04 3.2-4.32 4.5-7.36 7.7-259.68 272.5-506.24 583.2-725.6 895.4-219.2 312-411.2 625.4-562.08 903.2-192 353.9-317.6 650.8-317.6 942.5 0 165.9 40.64 330.3 132.8 502.3 126.72 236.6 350.72 487.6 629.12 727.2 278.08 239.3 610.56 467 953.92 656.6 343.52 189.8 698.26 341.3 1066.26 468 367.8 126.6 749.1 228.3 1145.7 318.1 19.1 4.3 38.1 8.6 57.2 12.8 170.5 38.1 343.6 73.6 516.8 106.7 211.5 40.5 422.8 77 629.2 108.6 42.9 6.6 85.5 13 127.7 19.1h.2c194.9 28.6 384.3 52.6 564.5 71.7 141.4 14.8 277.1 26.7 404.9 35.2 183.7 12.1 351.2 17.1 507.1 17.1 397.7 0 720-33 1042-65.8 2-.1 3.7-1.4 4.7-3 56.8-108.5 113.9-217.3 160.6-323.1 46.9-105.7 83.5-208.3 99.4-304.6 6.9-41.6 9.9-81.9 9.9-121.3 0-142.9-39.7-272.9-79.2-402.2l-.6-1.8c-.4-1.3-1.2-2.4-2.3-3.2h-.1c-147.9-100.6-295.7-201.4-447.6-299.7-152-98.2-307.8-193.9-471.6-284.4-76.7-42.4-155.2-83.7-235.1-124-90.9-46-183.5-90.8-277.7-134.6-97.2-45.3-195.9-89.8-296-133.8-82.4-36.1-165.6-72-249.5-107.6-110.7-47.2-222.5-94.1-333.6-139.6-74.9-30.7-149.4-60.8-223-89.7-118.6-46.7-234.6-90.7-345.3-130.3-59.8-21.4-118.1-41.6-174.4-60.1-161-53.1-306.6-94.1-444.5-128.8-137.7-34.7-268-63.2-398.1-91.9h-.1l-745.9-154.5c241.2-131.4 482.7-263.1 708.6-403.9 62.9-39.2 124.8-79.2 188.3-121.1 76.3-50.5 154.7-103.5 241.1-161.9 52.4-35.4 107.4-72.6 166.4-112.3 59.1-39.7 122-81.6 189.8-126.4 170.4-112.7 372.8-243.5 583-378.3 210.3-134.7 428.7-273.2 631.1-401.7l.3-.2 95.8-60.8c181.8-115.3 351.2-222.7 512.7-326.2 161.6-103.7 315.2-203.4 465.9-303.7 25.3-16.8 50.2-33.3 75.2-50.1 150.2-100.3 296.5-197.9 436.2-276.5 139.5-78.5 272.4-137.9 396-161.7 45.1-8.7 88.9-12.7 131.8-12.7 86.6 0 168.8 16 248.8 41.6 114.9 36.8 225 93.3 335.5 150.3 2.6 1.3 5.8.5 7.4-1.9 115.2-167.7 230.2-335.4 352.9-500.2 69-92.8 140.2-184.3 219.6-267.4 61.9-64.6 128.8-124 203.2-174.5 156.4-106.1 347-173.1 547.8-173.1 17.6 0 35.4.4 53.3 1.6 110.1 6.5 222.4 33.7 329.4 77.9 107.1 44 208.7 105.1 296.8 179.5 88.3 74.2 163.2 161.9 231.4 256.5 68.3 94.5 129.9 195.7 191.8 297.3.7.9 1.6 1.9 2.9 2.4 57.4 21.4 114.9 42.8 200.5 62.8 16 3.7 32.9 7.4 51 11.1 78.9 15.5 180 30.1 318.3 42.7 77.6 7 166.8 13.4 263.6 19.4 81 5.1 167.2 9.9 256.4 14.5 88.9 4.7 180.8 9.1 273.4 13.8 94.4 4.6 189.3 9.3 282.1 14.2 92.8 4.8 183.5 9.9 269.6 15.2 16.9 1 37.6 2.4 54.1 3.4 107.6 6.9 208.6 13.4 305.6 13.4 276.4 0 522.8-52.5 813.1-296.1 65.4-54.9 133.1-119.7 202.4-192 167.5-175.1 344.3-395.4 521.6-632.8 177.3-237.3 354.9-491.7 524-734.9l41.3-59.7 40.6-58.4 33.6-48.5c206.6-297.3 399.2-574.4 610.4-914.4 210.9-340 440.3-742.9 720.6-1291.7 528.5-1035 1238.9-2591.6 1238.9-3733.4" style="fill:#fab833;fill-opacity:1;fill-rule:nonzero;stroke:none" transform="matrix(.13333 0 0 -.13333 0 5333.333)"/><path d="M17154.7 12729.1c117.8-55.9 1665.6-213.7 3309.6 1179.3s498.8 3308.6 2224.9 4021.5c1726 712.9 3787.3-408 3787.3-408l797.7-2238.5-4484.3-3216.1-3628.6-237.7z" style="fill:#df932a;fill-opacity:1;fill-rule:nonzero;stroke:none" transform="matrix(.13333 0 0 -.13333 0 5333.333)"/><path d="m20311.9 15230.7-1956.7 363.5v431.6l1883.9-369.8z" style="fill:#7998d5;fill-opacity:1;fill-rule:nonzero;stroke:none" transform="matrix(.13333 0 0 -.13333 0 5333.333)"/><path d="m20311.9 15628.3-1956.7 397.5 2409.9 497.9-171.2-558.3z" style="fill:#cbd7f1;fill-opacity:1;fill-rule:nonzero;stroke:none" transform="matrix(.13333 0 0 -.13333 0 5333.333)"/><path d="M25237.9 10711c-.7-3.1-3.7-5.2-6.9-4.5-3.1.6-5.1 3.7-4.4 6.8.6 3.2 3.7 5.2 6.8 4.5 3.1-.6 5.1-3.7 4.5-6.8" style="fill:#040606;fill-opacity:1;fill-rule:nonzero;stroke:none" transform="matrix(.13333 0 0 -.13333 0 5333.333)"/><path d="m26527.7 15882.9-2.4-2.9-3.7 1.1zm1629.6-484.2-2.9.8c-.3.8-.6 1.8-1 2.6zm1085.4-3544.5c-26.1 526.3-167.5 1102-366.5 1702.4-199.1 600.4-455.7 1225.3-712 1850-.7 1.6-2 2.8-3.7 3.3l-1635.7 482.3c-2.1.6-4.5 0-5.9-1.8l-5.9-6.7c-1450.4-1704.7-2898.6-3403.1-4524-3403.1-29.8 0-59.9.7-89.8 1.8-134.4 5.3-270.2 22.2-406.9 49.1-424.1 83.9-857.6 264.2-1291.5 490.4-434.1 226.3-868.5 498.3-1294.9 765.3-355.2 222.4-704.6 441.3-1043.5 627.2-338.9 185.8-666.9 338.6-979.2 428.5-76.3 21.9-151.7 40.1-226.2 54.9-162.3 32-319.7 47-472.5 47-1151.4 0-2029.1-856.5-2548.2-1773.6-455.7-805.1-635.7-1658.2-635.7-2404.3 0-268.5 23.4-523.1 65.5-756.7 79.7-441.6 226.5-807.8 416.3-1143.8s422.2-641.8 673.3-962.4c250.7-320.3 520.5-656 839.2-941.4 318.9-285.5 686.7-520.5 1133.6-639.4 53.4-14.2 108.1-26.9 163.8-37.8 220.5-43.5 457.5-62.4 706.3-62.4 737.9 0 1580 166.1 2402.8 347.6 284.4 62.7 565.6 127.2 843.4 190.7 269 61.6 534.1 122.2 793 179.3 287.3 63.4 567.3 122.4 837.1 173.5 269.7 51 529.3 94.2 775.7 125.7 155.8 20 306.4 35.4 453.6 48.4 147 12.9 290.7 23.5 432.6 34 134.9 10 268.3 19.9 401.6 31.6 133.3 11.6 266.4 25.1 400.6 42.4 152.5 19.5 306.4 43.8 464.2 75.8 157.8 31.8 101.1 356.5 268.5 406.4 469.7 140.3 317.4 1132.6 1255.3 1509.1 526.5 211.4 2920.2 1316.8 2920.2 2289 0 58.5-1.4 117.9-4.5 177.7" style="fill:#4463b7;fill-opacity:1;fill-rule:nonzero;stroke:none" transform="matrix(.13333 0 0 -.13333 0 5333.333)"/><path d="m22225.6 8587.5-2.9 7.4 4.8-2.4c-.6-1.6-1.3-3.4-1.9-5m8094.1 5629.1c-120.3 170.1-281.9 305.6-469.8 401.3-187.8 95.7-402.1 151.7-627.8 163.1-83.2 4-168 2-253.6-6.1-275.1-26.7-558.7-118.6-847.4-245.6-288.5-127.1-582.2-289.1-877.1-456-295.2-167.1-592.2-339.1-903-541-311.1-202.1-636-433.9-987.4-720.8-351.4-286.7-729-628.5-1086.4-990.9-357.3-362.5-694.4-745.7-964.8-1115.8-541-740.2-814.4-1426.9-1087.5-2113-1.1-2.8 0-6 2.7-7.3 176-86.6 352-173 564.3-241.9 212.3-69 460.8-120.4 781.8-136.4 56-2.7 114.2-4.4 174.9-4.9 13.9-.2 28-.2 42-.2 754 0 1856.7 176.5 2797.8 629.8 479.4 230.9 916.6 533.6 1316.6 863.5 400 329.8 762.9 686.7 1093 1026.4 330.1 339.5 628.2 661.9 873.4 975 245.3 313 438 616.5 557.5 918.3 102.4 258.1 151 514.9 151 755.8 0 322.4-87.2 616.2-250.2 846.7" style="fill:#4463b7;fill-opacity:1;fill-rule:nonzero;stroke:none" transform="matrix(.13333 0 0 -.13333 0 5333.333)"/><path d="M22467.8 9943.3c-7.8 0-15.8 1.3-23.6 4.1-37.6 13-57.4 54.1-44.4 91.6 227.2 652.1 1145.9 1562.3 2730.8 2705.3 1174 846.8 2297.3 1514 2308.5 1520.7 34.2 20.3 78.4 9 98.6-25.3 20.3-34.2 9-78.3-25.2-98.6-44.5-26.4-4455.7-2653.8-4976.7-4149.4-10.3-29.7-38.2-48.4-68-48.4" style="fill:#192543;fill-opacity:1;fill-rule:nonzero;stroke:none" transform="matrix(.13333 0 0 -.13333 0 5333.333)"/><path d="M24144.6 14450.7c.5 1.6 1 3.4 1.5 5 1.7-.3 3.5-.8 5.3-1.1zm-309.2 815.5c-16.7 5.3-34 10.3-51.7 15.1-431.9 116.8-1224.3 135.8-2085.9 135.8-207.1 0-418.1-1.1-629-2.2-.5 0-1 0-1.4-.2-197.3-51.3-392.2-101.9-498.9-101.9-19.1 0-35.4 1.6-48.3 5.1-21.3 5.8-32.2 16-32.2 33 0 4.3.6 8.9 2.1 14.1.6 1.9 1.1 3.8 1.9 5.9 9.6 27.2 36.5 64.6 73.1 108.5 36.7 43.8 83.2 94 132 147 57.9 62.6 119.1 128.5 169.9 190.7 50.9 62.4 91.7 121.3 108.7 169.6 2.1 6.1 3.8 11.9 5.3 17.6 2.5 10.7 3.8 20.7 3.8 30.1 0 66.1-60.8 103.8-149.1 127.7-45.6 12.3-99.5 21.3-158.4 28.6-58.9 7.4-122.6 13.1-187.7 19.1-35.4 3.2-71.5 6.4-107.4 9.9-44.4 4.5-88.9 9.3-133.1 14.2-43.5 4.8-86.7 9.6-129.4 13.8-85.1 8.5-168.5 14.7-248.2 14.7-125.7 0-242.5-15.7-343.5-63.2-115.2-54.2-209.4-149.8-277-270.4-67.5-120.6-108.3-266.4-116.1-421.4-1-18.9-1.5-38-1.5-57.2 0-295 113.8-614 317.2-803.8 52.1-48.6 110-89 173.4-121.8 63.2-32.9 131.7-58.7 204.8-78.4 78.7-21.2 162.9-35.8 251.7-45.2 88.8-9.3 182.4-13.5 280-14.1 9.3 0 18.7-.2 28-.2 370.1 0 795.5 49 1179.3 120.5 84.7 15.8 167.6 32.6 249.3 49.3 80.3 16.5 159.5 32.6 239.1 47.3 204.1 38.1 409.9 67.1 635.8 67.1 13.8 0 27.7-.2 41.6-.3 211.4-3.4 441-32.5 679.8-74.8 238.9-42.2 487.1-97.2 735.6-152.4 2.8-.7 5.9 1.1 6.7 4 39.5 130.5 79.3 262 79.3 383.2 0 180.9-88.8 338.8-399.6 435.6" style="fill:#f89b72;fill-opacity:1;fill-rule:nonzero;stroke:none" transform="matrix(.13333 0 0 -.13333 0 5333.333)"/><path d="M20780.2 14270.3c-469.9 0-1078.1 75.6-1317.5 271.7-346.7 284.2-399 877.2-401 902.4-.1.6-.1 1.2-.1 1.8-1.1 18.5-21.6 456.7 343.9 764.1 367.1 308.8 1254 60.4 1291.6 49.7 38.2-11 60.3-50.8 49.4-89-10.9-38.3-50.7-60.5-89-49.5-235.6 67.1-903.1 194.1-1159.3-21.4-304-255.6-293.7-625-292.9-645 2.4-26.4 55.5-561.4 348.7-801.7 294.2-241.1 1385.3-289.2 1711.6-197.4 38.3 10.8 78.1-11.5 88.8-49.8 10.8-38.3-11.5-78-49.8-88.8-105.8-29.8-299.3-47.1-524.4-47.1" style="fill:#df932a;fill-opacity:1;fill-rule:nonzero;stroke:none" transform="matrix(.13333 0 0 -.13333 0 5333.333)"/><path d="m22739.7 14393.8-3.7 8c2.2-.7 4.5-1.2 6.7-1.8-1.1-2.1-2.1-4.2-3-6.2m80.9 1103.8 1.3 5.1c.2-.9.5-1.9.7-2.9-.7-.8-1.3-1.4-2-2.2m6894.3 437.4c-14.4 7.9-29.5 15.4-45.1 22.6-88 41.1-195.2 73.9-315.9 103.4-120.6 29.4-254.5 55.5-395.8 83-180.8 35.2-373.8 72.6-566.9 122.6-193.3 50-386.7 112.3-568.5 197.1-62.4 29.1-123.5 60.9-182.7 95.8s-116.5 72.8-171.5 114.1c-128 96.3-243.2 211.5-350.7 334.2-107.6 122.8-207.4 253.3-304.5 380.4-87.2 114-172.3 225.4-259.1 325.9-86.7 100.5-175 189.9-268.4 260.3-131.7 99-274 160.3-436.8 160.3-15.2 0-30.4-.5-46-1.6-17.9-1.3-36.1-3.2-54.5-5.9-358.6-53.3-815.7-394.7-1321.6-880s-1060.8-1114.1-1615.1-1742.1c-1.1-1.3-1.6-3.3-1.2-5.1 45.2-181.1 90-361.3 90-527.7 0-20.8-.8-41.4-2.2-61.9-6.9-91.5-29.6-178.1-60.3-262.6-30.9-84.4-69.8-166.5-108.8-249.1-.8-1.6-.8-3.3 0-4.9s2.1-2.8 3.8-3.2c131.7-33.6 263.4-67.2 400.2-104.4s278.9-77.9 431.2-125.9 315-103.2 486.7-165.1c171.8-61.8 352.6-130.4 541.3-205.1 32.9-13.1 66.9-26.6 100.3-40 20.2-8 40.5-16.2 61-24.2 14.2-5.7 28.4-11.3 42.7-16.9 160.3-63.6 327.7-127.9 504.9-184.2 19.1-6.1 38.1-12 57.3-17.8 160.2-48.8 328.7-90.5 507.7-119.3 70.4-11.4 142.6-20.8 216.2-28h.1c135.7-13.6 275.9-20.3 418.6-20.3 88.5 0 177.9 2.5 267.8 7.8 19.7 1 39.5 2.2 59.4 3.7 104.9 7.2 210.4 17.9 315.7 32.1 105.2 14.1 210.4 31.7 314.4 52.7 269.7 54.2 533.2 131.3 780.9 225.1 247.5 93.9 479.2 204.5 685.6 326.1 206.4 121.4 387.5 253.7 542.4 402.7s283.5 314.4 384.8 501.9c94.6 175.1 165.9 370.4 165.9 551.9 0 193.9-81.4 371.8-303.3 491.6" style="fill:#fab833;fill-opacity:1;fill-rule:nonzero;stroke:none" transform="matrix(.13333 0 0 -.13333 0 5333.333)"/><path d="m26260 7603.2.8 4.6 3.5-6.4zm-155.4-887.8.7 4 4.1.6zm-817.7-122.8 1.6.4 1.6-.8zm-1273.3 568.7-3 7.3 5.1-2.2zm473.4 1179.2-2.2-5.5-5.3 2.3zm1781.8-728.3L24484 8348c-1.4.6-3 .6-4.5 0-1.4-.6-2.5-1.8-3.2-3.2l-473.4-1179.2c-1.3-2.9.1-6.2 2.9-7.5l1279.6-576.5c1-.5 2.1-.6 3.2-.5l822.6 127.5c2.6.4 4.5 2.3 4.8 4.7l156.3 892.5c.3 2.7-1.1 5.2-3.5 6.4" style="fill:#f89b72;fill-opacity:1;fill-rule:nonzero;stroke:none" transform="matrix(.13333 0 0 -.13333 0 5333.333)"/><path d="m25082.4 6517.8-1.4-1.2 1.2 8c1.2-1.6 2.3-3 3.2-4.6-.9-.8-2-1.4-3-2.2m391.5 1466.2 4.8 8.3c1.3-2.5 2.6-5.3 3.9-7.8zm4006.3 77.8c-110.4 295-449.6 439-937 439-49.1 0-99.5-1.4-151.5-4.3-145.6-8.2-302.6-27.7-464.2-54.3-161.7-26.4-327.8-59.8-492-95.6-164.9-36-327.5-74.4-481.6-110.8-138.1-32.6-268.8-63.5-387.7-89.4-257.4-56.2-458.4-89.1-631.2-110.4s-317.2-30.9-461.9-40.5c-1.9-.1-3.7-1.1-4.6-2.9-1-1.6-1-3.6-.2-5.4 118.4-238.9 235.5-475.5 235.5-687.2 0-44.3-5.1-87.4-16.4-129.3-1.2-4.1-2.3-8.3-3.6-12.3-35.5-118.2-120-226.6-229.4-330.1s-243.7-202.1-378.7-301.3l-1.6-1.1c-2.6-1.7-3.2-5.4-1.3-8 17.4-24.6 35-49.1 76-82.9 41.1-33.6 105.9-76.4 217.6-137.7 111.7-61.1 270.7-141 464.3-215.2 193.5-74.4 421.5-143.2 671.1-182.6 165.9-26.1 341.2-39.2 519-39.2 357.6 0 725.3 53 1045.3 159.4 239.7 79.7 452.6 189.3 638.7 327.8 186.1 138.4 345.1 305.6 477.1 500.7 60.3 89.2 115.1 184.3 162.1 281.7 47 97.3 86.2 197 115.8 295.5 39.7 132 62.1 262.3 62.1 382.3 0 91.8-13.3 177.9-41.7 254.1M23427.7 7117.8c0-30.9-4.2-61.2-12.2-88.2-49.6-167.8-142.9-329-263.7-466.2-120.8-137.3-268.8-251.1-427.8-324.2-30.1-13.9-60.6-26.4-91.7-37.9-75.2-27.7-152.5-49-230.7-66.9-78.4-17.9-157.8-32.6-237.1-47.4-79.7-14.7-159.1-29.6-237.5-47.5-78.4-18.1-155.6-39.2-230.7-66.9-92.8-34.4-184.9-73.4-276.6-115-91.9-41.6-183.2-85.8-274.7-129.8-193.2-92.9-386.8-186.4-584.7-256.9-197.7-70.6-400-118.4-610.2-120.5h-13.1c-511.2 0-1073.3 304.6-1342.9 738.1-34.9 56-64.5 119.5-86.9 186.9-30.4 90.8-48.2 188.9-48.2 284.1 0 116.2 26.3 228.2 87.4 318.4 142.2 209.9 349.9 372.3 584.3 492.8 234.4 120.7 495.5 199.4 744.7 242.1 117.7 20.2 237.4 27.4 357.2 27.4 126.6 0 253.3-8 378.8-16.5 68.1-4.7 170.4-11.9 255.5-17.8 82.4-5.7 148.9-10.4 153.3-10.7-.7 0 383.3-18.9 574-27.4 42.1-1.9 85.6-3.8 127.9-5.7 200.8-8.8 402.2-17.5 603-32.7 200.7-15 400.7-36.3 599.1-70.2 10-1.8 19.6-3.4 29.7-5.1 65.1-10.9 132.2-22.3 196.5-40 64.6-17.6 126.6-41.9 181.8-78.7 18.7-12.5 34.5-29 47.6-47.9 13-19 23.4-40.5 30.9-63.2 11.4-33.7 17-70.7 17-106.5" style="fill:#192543;fill-opacity:1;fill-rule:nonzero;stroke:none" transform="matrix(.13333 0 0 -.13333 0 5333.333)"/><path d="m26892.1 27863.7-4.6-6.6c1.7.3 3.7.8 5.4 1.1z" style="fill:#f89b72;fill-opacity:1;fill-rule:nonzero;stroke:none" transform="matrix(.13333 0 0 -.13333 0 5333.333)"/><path d="m27096.4 26342.4-4.8-6.6-.8 5.8zm-981.6-145.9 5.5.8c.5-1.8.8-3.7 1.1-5.5zm-516 2446.9 4.5 7 1.5-5.9c-2-.3-4-.8-6-1.1m-118.5 1508.6c2.5 2.2 5.3 4.6 7.8 6.9l1.8-10.1zm-316.5 1776 2.4 5.8.6-3.6c-.9-.8-2-1.4-3-2.2m4425-1102.1c-49.8 288.3-126.3 535.1-249.6 754.4-123.6 219.5-294 411.5-532.2 590.3-170.9 128.3-376.5 249.6-600.3 350.2-223.7 100.8-465.5 180.8-708.5 226.4-143.5 26.9-287.5 41.8-428.6 41.8-46.4 0-92.5-1.6-138.1-5-327.1-24-630.9-135.8-922.7-291.7-291.9-155.8-572-355.5-851.7-554.9-1.8-1.2-2.7-3.5-2.3-5.7l323.7-1785c.3-2.1 1.8-3.8 3.9-4.5 1.9-.6 4.1-.1 5.6 1.2 136.1 120.9 272.1 241.9 438.4 346.2 166.2 104.3 362.7 192.3 619.6 247.7 182.8 39.2 396.2 62.1 607.9 62.1 152.1 0 303.5-11.9 442.1-37.8 105.6-19.8 203.5-47.8 288.4-85 85-37.1 157-83.3 211.1-139.5 86.2-89.9 126.9-206.2 126.9-334.9 0-232.9-133.6-506-371.1-733.9-51.3-49.3-107.5-96.5-168.1-140.5-247.7-180-570.1-308.9-930.3-412.6-360.1-103.7-757.9-182.1-1156.3-260.5-1.4-.3-2.9-1.3-3.7-2.5-.8-1.3-1.1-2.9-.8-4.5l4.2-17.8c40.6-174.2 81.1-348.8 122.2-530.1 41-181.2 82.6-369.2 125-570.7 43-204.8 87.2-423.5 131.8-648.9 44.5-225.6 89.6-458.1 134.7-690.4.5-3.1 3.4-5.2 6.4-4.7l981.8 145.8c3 .5 5.3 3.3 4.8 6.5l-210.1 1520.8c-1.7-.3-3.7-.8-5.4-1.1l4.6 6.6.8-5.5c174.3 36.2 348.5 72.4 536.5 118.1 190.1 46.1 394.1 102.1 626.2 177.5 232 75.3 492.7 170 731.7 307 239.1 136.8 456.7 315.8 602.9 559.2 186.9 311.2 256.6 727.2 256.6 1137.4 0 231.4-22.2 460.8-58 668.5M27358.5 24593.9c0-128.8-24.1-257.6-89.4-363.5-31.5-50.9-75.2-93.6-124.3-129.4-49.3-36-104-65.3-158-89.6-105.4-47.6-222.4-83.1-338.7-83.1-4.8 0-9.4 0-14.2.2-25.9.6-52 3-78.3 6.9-100.4 15-202.2 53.1-291.2 108.8-89.1 55.8-165.4 129.4-215 215.3-62.6 108.2-90.7 238.4-90.7 368.2 0 81.9 11.2 163.8 32.3 239.7 28 100.3 92.6 187.6 173.9 260.3 81.1 72.8 178.9 130.9 273.1 172.9 57.6 25.6 118.6 47.1 181.3 56.4 9.1 1.4 22.7 2.5 34.1 3.3s20.5 1.3 20.5 1.3c.1 0 .5 0 .6-.2 0 0 10.7-.8 26.1-2.2s35.2-3.5 53.4-6.2c11.6-1.8 22.4-3.7 31.2-5.8 61.6-15.2 121-40.2 176.8-70.1 88-47 173.2-114.4 240.7-194.7 67.7-80.3 117.7-173.6 135.5-272.3 12.5-69.3 20.3-142.7 20.3-216.2" style="fill:#f89b72;fill-opacity:1;fill-rule:nonzero;stroke:none" transform="matrix(.13333 0 0 -.13333 0 5333.333)"/><path d="m23952.2 23901.4-3.2-5.7c1.3.4 2.7.8 4 1.2z" style="fill:#4463b7;fill-opacity:1;fill-rule:nonzero;stroke:none" transform="matrix(.13333 0 0 -.13333 0 5333.333)"/><path d="m24082.5 23215.7-3.9-5.8-1 4.8zm-471.6-86.4 4.9 1 .8-4.9zm-197 1094.2 3.1 5.5.8-4.2c-1.3-.4-2.6-.8-3.9-1.3m-165.3 666.4c1.7.7 3.6 1.3 5.4 1.9l1-5.7zm-116 690.9h-.1l3.4 5.4.7-4.2c-1.4-.4-2.6-.8-4-1.2m1899-476.8c-18.6 127.5-76.1 237.2-160.2 327.1-84 89.8-194.7 159.6-319.7 207.5-8.4 3.2-17.1 6.5-25.8 9.5-169.6 60-363.4 80.4-544.7 80.4-98.8 0-194-6.1-279.4-15.1-121.3-12.7-223-31.3-315.2-52.8-92-21.6-174.5-46-256.8-70.4-2.4-.7-3.9-3.1-3.5-5.6l119-700.1c.3-1.5 1.1-2.7 2.3-3.4 1.3-.8 2.7-.9 4.1-.4 49 16.6 98 33.2 158 49.4 59.9 16 130.7 31.4 223.7 45.7 96.8 14.9 216.8 28.3 327.8 28.3 88 0 170-8.4 230.2-31.4 10-4 19.5-8.2 28.2-12.8 7.2-3.9 13.8-8 20-12.3 50.8-35.7 72.1-89.7 72.1-147.2 0-58.7-22.1-121.2-58-172.2-37.5-53.1-89.4-93-150.8-126.8-61.5-33.7-132.4-61.4-207.9-90.1-75.3-28.5-154.7-58.1-236.1-87.9-81.5-30-164.9-60.3-248.4-90.7-2.2-.8-3.5-3.1-3.1-5.4l199.6-1103.7c.2-1.2.9-2.4 2-3.1 1.1-.8 2.4-1.1 3.7-.8l471.6 86.4c1.2.1 2.3.9 3.1 2 .7 1.1.9 2.4.7 3.7l-135.1 685.1c-1.3-.4-2.7-.8-4-1.2l3.2 5.7.8-4.5c142.3 44.7 284.9 89.4 417.8 149.5 134.2 60.5 258.5 136.5 362.7 243.5 183.6 188.5 304.9 472.8 304.9 717.7 0 33-2.3 65.3-6.8 96.4M24180.2 22637.4c0-6.7-.9-13.3-2.6-19.8-6.4-22.8-17.9-43.8-32.2-63.1-14.2-19.1-30.9-36.7-47.6-52.6-13.4-12.8-27.9-25.8-43.8-36.8-15.7-10.9-32.8-20-51.3-24.8-5.1-1.3-10.1-2.3-15.1-3.1-7.1-.9-14.1-1.5-21.3-1.5-47 0-95.3 20.4-135.3 42.5-12.9 7-26.9 15.4-38.9 25.7-12.2 10.2-22.7 22.3-28.8 36.9-7 16.4-9.6 34.3-9.6 52.3 0 13.2 1.5 26.5 3.5 39.1 4.2 25.8 12.1 51.4 24.3 74.6 5.4 10.4 19 28.7 19.1 28.7.1.3.4.6.7.8 0 0 38.8 33.5 61.4 45.7 30.9 16.7 65.8 31.2 101.3 36.2 9 1.3 17.9 2.1 26.9 2.1 4.6 0 9.3-.3 13.9-.7 24.3-2.2 46.8-12.5 67.3-26.6 20.3-14.1 38.6-32 54.2-49.3 25.1-27.7 53.9-67.3 53.9-106.3" style="fill:#4463b7;fill-opacity:1;fill-rule:nonzero;stroke:none" transform="matrix(.13333 0 0 -.13333 0 5333.333)"/><path d="m30171.6 24449.2-4-6.7c1.6.5 3.4.9 5 1.6z" style="fill:#fab833;fill-opacity:1;fill-rule:nonzero;stroke:none" transform="matrix(.13333 0 0 -.13333 0 5333.333)"/><path d="m30325.2 23640.1-4.6-6.9-1.2 5.8zm-556.5-101.9 5.8 1.1.9-5.8zm-232.5 1291 3.7 6.6 1-5c-1.6-.5-3.1-1-4.7-1.6m-195 786.4c2.1.8 4.3 1.4 6.4 2.2l1.1-6.7zm-136.8 815.2h-.2l4.2 6.4.8-5c-1.6-.4-3.2-.9-4.8-1.4m2240.6-562.6c-21.7 150.4-89.6 279.9-188.9 386-99.2 105.9-229.9 188.3-377.3 244.8-9.9 3.8-20.2 7.6-30.2 11.2-200.4 70.8-429 94.8-642.9 94.8-116.7 0-229-7.2-329.8-17.7-142.9-15.1-263-37-371.7-62.4-108.8-25.5-206-54.3-303.2-83.1-2.8-.8-4.6-3.6-4.1-6.5l140.5-826.1c.3-1.8 1.2-3.2 2.7-4 1.4-1 3.2-1.1 4.8-.5 57.9 19.5 115.5 39.2 186.2 58.3 70.7 18.8 154.6 37.1 264.2 53.9 114.2 17.6 255.8 33.4 386.7 33.4 103.8 0 200.8-9.9 271.8-37.1 11.9-4.6 22.9-9.6 33.2-15 8.4-4.7 16.3-9.5 23.5-14.6 60-42.1 85.1-105.8 85.1-173.6 0-69.3-26.1-143-68.5-203.2-44.1-62.7-105.4-109.8-177.9-149.6s-156.2-72.5-245.3-106.4c-88.9-33.6-182.5-68.5-278.5-103.7-96.2-35.3-194.6-71.2-293-107-2.7-1-4.3-3.7-3.8-6.4l235.5-1302.3c.3-1.4 1.1-2.8 2.4-3.6 1.3-1 2.9-1.3 4.3-1l556.5 101.9c1.4.2 2.9 1.1 3.7 2.4s1.1 2.9.9 4.3l-159.3 808.7c-1.6-.7-3.4-1.1-5-1.6l4 6.7 1-5.1c168 52.5 336.1 105.3 492.8 176.1 158.4 71.4 305.1 161.2 428 287.4 216.4 222.4 359.6 557.6 359.6 846.6 0 39-2.5 77.1-8 114M29929.7 23231.6l.3.3s-.2 0 0-.1c-.2-.2-.2-.2-.3-.2 0-.2 0-.2-.2-.3h-.1zm375.7 17.1c-18.4 20.3-40 41.6-64.2 58.3-24 16.6-50.6 28.9-79.2 31.3-5.8.5-11.4.8-17.1.8-10.4 0-20.8-.8-31.1-2.4-41.9-5.9-83-23-119.5-42.7-26.9-14.4-72.5-53.9-72.5-53.9-.3-.3-.6-.7-.9-1 0 0-16-21.6-22.6-33.9-14.2-27.4-23.7-57.6-28.6-88-2.4-14.7-4-30.4-4-46.1 0-21.1 3-42.4 11.2-61.7 7.2-17.2 19.7-31.4 33.9-43.4 14.4-12.2 30.7-22.1 46.1-30.6 47-26 104-49.9 159.3-49.9 8.5 0 17 .5 25.5 1.8 5.9.8 11.8 1.9 17.7 3.5 22 5.8 42.1 16.3 60.7 29.3 18.5 12.9 35.8 28.3 51.5 43.3 19.7 18.9 39.5 39.4 56.3 62.1 16.7 22.7 30.4 47.4 37.8 74.4 2.1 7.7 3 15.5 3 23.4 0 46.1-33.9 92.8-63.3 125.4" style="fill:#fab833;fill-opacity:1;fill-rule:nonzero;stroke:none" transform="matrix(.13333 0 0 -.13333 0 5333.333)"/><path d="M18010.9 26255c0-96.9-8.7-194.4-26.4-289.4-8.7-46.2-20-94.4-37.5-139.7-17.4-45.4-40.8-87.8-73.4-122.7-94.7-101.1-247.8-153.1-389.9-153.1-21.5 0-42.6 1.1-63.4 3.5-.9.2-1.4.2-2.4.3-96.9 11.9-192.9 49-279.2 102.9-86.1 53.9-162.4 124.6-220.1 203.2-33.5 45.3-58.8 96.3-78.1 149.6-19.4 53.4-32.8 109.3-42.6 164.2-10.4 58.8-17.1 120-17.1 180.8 0 59.8 6.4 119.5 22.2 176.6 26.6 95.5 82.4 183 153.5 257.8 71 74.7 157.6 136.4 245.6 180.9 53.1 26.7 114.4 45.9 174.9 45.9 9.2 0 18.7-.4 28-1.4 2-.3 4.3-.5 6.4-.8 70.7-8.2 139.6-31.5 204.6-64.3 64.6-32.8 125.3-75.1 179-121 47.9-40.9 92.4-87.8 126.6-141.1 10.6-16.5 28.2-50.9 28.3-50.9 0-.1.2-.3.2-.5 0 0 15.3-37.1 21.4-56.4 6.7-21.6 12-43.6 16.5-65.6 10.2-49.5 15.8-99.7 19.2-150 2.4-36.1 3.7-72.4 3.7-108.8" style="fill:#f89b72;fill-opacity:1;fill-rule:nonzero;stroke:none" transform="matrix(.13333 0 0 -.13333 0 5333.333)"/><path d="M18264 30795.5c-40.3 12.2 36.8 51.7 48 50.9 1 1 22.1 2.9 34.2 5.9-17.4-21.4-61.4-55-82.2-56.8m454.4-366.4c-6.2 25.8-12.5 49.1-18.7 73.1h-.2c-50.7 162.4-84.9 316.8-193.4 413 84 239.2-247.5 389.1-427.9 240 140.7 1.6 328.4-6.1 318.9-198.6-390.1-19.3-385.7-424.3 21-144.1 12-6.3 44.1-69.9 46.1-99.5 20.6-131.1 44.4-279.4 27.5-421.6zM22101.8 29968.8c6 41.7 56.6-28.7 57.5-39.9 1.1-.8 6.1-21.4 10.9-32.9-23.8 14-63.5 52.5-68.4 72.8m-294.6-503.9c24.6 10 46.7 19.7 69.5 29.4v.2c153 74.3 300.6 131.2 379.5 252.8 249.1-47.4 347.9 302.7 173.6 458.8 22.5-138.8 42.9-325.6-148.8-344.9-77.3 382.8-477.1 318.2-139.4-42.2-4.4-12.8-62.6-54.1-91.6-60.4-126.5-39.9-269.6-85.6-412.8-90.1zM16759.1 29587.8c3.1 7.4 6.3 20.6 7 21.1.6 7.2 32.9 52.2 36.8 25.5-3.1-12.9-28.5-37.6-43.8-46.6m340.9-145.4c-91.5 2.8-183.1 32-264 57.6-18.5 4-55.7 30.4-58.5 38.6 215.9 230.5-39.8 271.8-89.2 27-122.6 12.4-109.6 131.8-95.2 220.6-111.4-99.8-48.2-323.8 111-293.4 50.5-77.8 144.9-114.2 242.8-161.7l-.1-.1c14.6-6.3 28.8-12.4 44.5-18.8z" style="fill:#192543;fill-opacity:1;fill-rule:nonzero;stroke:none" transform="matrix(.13333 0 0 -.13333 0 5333.333)"/><path d="M17268.4 25908.1c-11.9 0-24 3-35.1 9.2-34.7 19.5-47.1 63.3-27.6 98 60.8 108.7 142.2 177.8 241.8 205.2 57.9 16 113.7 15.1 161.1 7.5-33.2 85-81.4 144.7-143.9 178.1-135.4 72.4-302.6 3.3-304.2 2.6-36.6-15.4-78.8 1.6-94.4 38.1-15.5 36.5 1.2 78.6 37.7 94.3 9.3 4 230.6 97.1 427.5-7.3 130.2-69.1 215.4-204.2 253.3-401.8 5.3-27.7-6-55.9-28.9-72.2-23-16.4-53.3-17.8-77.7-3.8-.2.1-58.7 32.4-130.8 33.3-90.9.6-160.9-46.1-215.9-144.3-13.2-23.6-37.7-36.9-62.9-36.9" style="fill:#d67d52;fill-opacity:1;fill-rule:nonzero;stroke:none" transform="matrix(.13333 0 0 -.13333 0 5333.333)"/><path d="M19822.6 26511.7c0-126.3-102.4-228.7-228.7-228.7-126.4 0-228.8 102.4-228.8 228.7 0 126.4 102.4 228.8 228.8 228.8 126.3 0 228.7-102.4 228.7-228.8M21498.8 26283c0-126.4-102.4-228.8-228.8-228.8-126.3 0-228.7 102.4-228.7 228.8 0 126.3 102.4 228.7 228.7 228.7 126.4 0 228.8-102.4 228.8-228.7M19130.7 26983.1s178.6 362.9 501.1 322.5l121-159.7s-492.5-59.1-553-252.1zM21793.9 26735.3s-121.5 385.8-446.5 394.8l-143.7-139.6s477.8-133.1 508.4-333z" style="fill:#192543;fill-opacity:1;fill-rule:nonzero;stroke:none" transform="matrix(.13333 0 0 -.13333 0 5333.333)"/><path d="M16920.6 28280c-29 75.1-44.6 154.7-53.9 235.1-8.8 80.6-8.7 162.8.6 244.9 9.6 82 29.3 164.2 61.3 242.8 8.1 19.7 16 39.4 26.4 58.1 10.2 18.9 19 38.4 31.1 56.3 22.1 36.9 48.5 71.2 76.4 104.3l45 46.9 49.1 42.4c16.8 13.6 35.3 25 52.8 37.4 17.4 12.9 36.6 22.6 55.4 32.8l28.4 15.1c9.4 5.1 19.5 8.6 29.2 12.9 19.6 8.1 39.1 16.7 59.1 23.5l60.5 18.1c20 6.5 40.7 9.2 61.1 13.4 163.7 30.5 328.4 20.7 483-21.1-39.9-6-79.2-11-118.2-14.9l-115.6-18.1c-75.8-15.3-150.5-30.2-220.8-55.5-35.9-10.4-69.2-26.4-103.2-39.9-16.6-7.6-32.3-16.9-48.6-24.7-7.9-4.3-16.4-7.8-23.9-12.6l-22.7-14.5c-31.1-18-59.1-40.1-86.8-62.3l-39.6-35.2-36.2-38.8c-93.6-106.4-155-241.4-192.2-386.7-37.4-145.7-53.5-300.2-57.7-459.7M18718.4 29835.5c31.9 48 71.7 89.6 113.7 128.4 42.3 38.7 88.4 73.2 137.2 104.3 97.5 61.7 207.5 107.4 324.3 130l44.1 7c14.8 1.8 29.8 3.2 44.6 4.6 14.9 1.6 30 1.3 44.9 1.8 15 .4 30 .8 45-.6 60-2.4 120-13 176.8-31.9 28.7-8.4 56-21.1 82.9-33.2 13.2-6.8 26.1-14.1 38.9-21.4l19-11.2 18.1-12.5c11.9-8.8 23.9-16.8 35.2-25.9 11-9.7 22-19.2 32.6-29 5.2-5 10.8-9.5 15.6-14.9l14.5-16.1c9.4-11.1 18.9-21.7 27.6-33-106.7 42.2-207.1 76.1-309.6 86.9-12.7 1.6-25.3 3.5-38.2 3.8-12.7.7-25.3 2.1-38 2.5-12.7.1-25.4 0-38 .5-12.7.5-25.4-.9-38-1.2l-19-.7-18.9-1.6c-12.7-1.2-25.3-1.6-37.9-3.9l-37.8-4.8-37.7-6.7c-100.5-19.4-200.5-50.2-299.9-89.1-99.8-38.6-198.5-83.9-302-132.1M21747.2 28975.2c57.4-5.7 112.6-21.5 166.6-40.5 54-19.3 106.1-43.9 156.3-72.5 100.1-57.4 191.9-133.3 266.5-226l26.8-35.8c8.6-12.2 16.7-24.7 25-37.2 8.3-12.4 15.1-25.9 22.5-38.9s14.7-26.1 20.6-40c25.9-54.2 44.5-112.2 54.4-171.2 5.9-29.3 7.5-59.3 9.3-88.8.2-14.9-.3-29.7-.7-44.4l-1-22-2.7-21.9c-2.1-14.6-3.6-29-6.4-43.3-3.4-14.2-6.6-28.4-10.4-42.3-2-7-3.4-13.9-5.8-20.8l-7.5-20.3c-5.5-13.5-10.3-26.8-16.3-39.9-12.6 114.1-29.5 218.7-67.9 314.4-4.5 12-8.7 24-14.5 35.5-5.3 11.6-9.9 23.4-15.5 34.8-5.9 11.3-11.9 22.5-17.4 33.9-5.4 11.4-12.6 22-18.7 33l-9.5 16.4-10.3 16.1c-7 10.5-13.2 21.5-21.1 31.6l-21.9 31.2-23.6 30.2c-64.1 79.8-138.1 153.7-218.9 223.5-80.8 70.2-167 136.2-257.9 205.2M20412.6 28517.5c29.7-97.9 61.3-188.3 102.3-270.7 40.5-82.3 90.8-154.5 153.4-211.3l23.8-20.8 25.6-18.8c8.3-6.6 17.7-11.6 26.5-17.6 8.7-6.2 18.3-10.9 27.7-16.2 18.3-11.4 38.7-19 58.4-29l31.1-11.8c10.2-4.6 21-8 31.9-11.2 86.4-28.5 181.3-43.7 282.6-60.8-93.5-42.8-198.1-59.8-305-50.2-26.8 1.5-53.3 8-80 13.3-26.3 7.5-52.8 15.2-78.2 26.6-50.9 21.8-99.6 51.7-141 89.8-83.7 75.8-137.9 177.3-163.1 280-12.6 51.7-18.7 104-18.5 155.9.8 51.8 6.2 103.5 22.5 152.8M17891.2 27677.9c85.6-55.9 168-104.8 252.3-141.7 84-37 168.9-60 253.3-63.3l31.7-.6 31.6 2c10.6.3 21 2.5 31.6 3.5 10.7.9 21.1 3.5 31.6 5.5 21.4 3 41.9 10.3 63.4 15.3l31.5 10.9c10.8 3.1 21.2 7.4 31.6 11.9 84.5 33.7 167 83.1 255.6 135.1-44.2-93-113.3-173.2-201.4-234.5-21.5-16.1-46-28.1-69.9-41.2-24.9-11.2-50.1-22.3-77-29.9-53-16-109.6-24.4-165.7-21.8-112.8 4.3-219.6 47.2-304.9 109.8-42.9 31.4-81.2 67.6-114.4 107.4-32.6 40.3-61.7 83.4-80.9 131.6M19171.7 28161.7c102.2 3.1 197.7 10 288 28 90 17.6 172.8 47.3 243.9 92.9l26.4 17.6 24.8 19.7c8.6 6.3 15.9 14.1 24 21 8.2 6.7 15.2 14.8 22.8 22.5 15.8 14.7 28.4 32.5 43.2 48.8l19.6 26.9c7.1 8.7 13.2 18.2 19.1 27.9 50.1 75.9 89.6 163.6 132.6 256.9 16.8-101.5 5.9-206.8-31.3-307.5-8.4-25.5-21.6-49.3-33.7-73.7-14.1-23.5-28.4-47-46.1-68.6-34.4-43.5-76-82.7-123.5-112.7-95.1-60.9-207.2-86.7-313-84.2-53.1 1.3-105.2 9.1-155.2 22.8-49.8 14.4-98.3 33.1-141.6 61.7" style="fill:#214175;fill-opacity:1;fill-rule:nonzero;stroke:none" transform="matrix(.13333 0 0 -.13333 0 5333.333)"/><path d="M16690 27411.6s1185.3 472.8 1023.9 776.6c-161.4 303.7-933.1-243.1-933.1-243.1l-441.6 24.2z" style="fill:#f89b72;fill-opacity:1;fill-rule:nonzero;stroke:none" transform="matrix(.13333 0 0 -.13333 0 5333.333)"/><path d="M17839.4 27951.6c0-298.2-315.2-601.5-544-601.5-228.9 0-14.4 495.7-322.6 748.8-230.5 189.2 223.3 392.6 452.2 392.6s414.4-241.7 414.4-539.9" style="fill:#192543;fill-opacity:1;fill-rule:nonzero;stroke:none" transform="matrix(.13333 0 0 -.13333 0 5333.333)"/><path d="M11173.8 25334.9c-79.2-50.3-166.1-80.6-254.9-102.3-89.1-20.6-181.2-31-274.8-26.6-23.3 1.1-46.8 3.6-70.2 6-23.5 3.9-46.9 7.1-70.3 12.9-46.5 11.2-92.9 26.2-136.5 49.4-43.5 23.1-84.4 53.3-116.4 91.3-31.8 37.9-54.3 83.2-60.3 129.8 67.7-65.5 140.6-96.4 218-115.7 77.9-18.4 159.1-26.1 242.5-29.9 83.3-4.1 168.4-4.1 255.2-5.1 86.9-1.2 174.8-1.5 267.7-9.8M10394.9 24881.9c76.1 31.3 146.4 58.1 214.9 86.8 68.3 28.4 133.8 58 196.9 90.9 63.1 33 123.9 69 183.6 110.2 60.5 40.8 117.6 88 183.5 138.4-6.9-40.9-20.1-80.3-38.6-117.1-18-37.3-41.4-71.8-67.7-104.1-53.2-64.2-120.5-116.9-194.4-155.1-73.9-38.4-154.2-62.7-235.4-72.6-40.7-4.7-81.7-5.9-122.5-2.7-40.6 3.4-81.4 10-120.3 25.3M13505.1 25990.2c-74.9-30.7-149.4-60.8-223-89.7-118.6-46.7-234.6-90.7-345.3-130.3 182.6 832.5-697.6 1879.1-1105.4 2310.3 170.5 38.1 343.6 73.6 516.8 106.7 1167.2-1128.3 1237.4-1846.4 1156.9-2197M14661.9 26505.8c29 360.8-119.8 979.5-992.1 1880.8-180.2-19.1-369.6-43.1-564.5-71.7 422.2-473.8 1081.4-1345.5 982.9-2077.5zM19268.3 22401.3c-83.8-246.9-321.6-672-544.5-895.9-276.4-277.6-748.8-321.4-1338.4-171.6-449.2 114-934.8 817.1-1140.6 1145.2 114.9 36.8 225 93.3 335.5 150.3 2.6 1.3 5.8.5 7.4-1.9 115.2-167.7 230.2-335.4 352.9-500.2 69-92.8 140.2-184.3 219.6-267.4 61.9-64.6 128.8-124 203.2-174.5 156.4-106.1 347-173.1 547.8-173.1 17.6 0 35.4.4 53.3 1.6 110.1 6.5 222.4 33.7 329.4 77.9 107.1 44 208.7 105.1 296.8 179.5 88.3 74.2 163.2 161.9 231.4 256.5 68.3 94.5 129.9 195.7 191.8 297.3.7.9 1.6 1.9 2.9 2.4 57.4 21.4 114.9 42.8 200.5 62.8 16 3.7 32.9 7.4 51 11.1M19268.3 20193.3s1047.2 749.7 2007.2 622.1l207.4-303.8s-1226.9-93.7-1952.7-750.3zM13879.7 19398.4c95.1 41.2 186.2 86.5 275 135.1 88.9 48.3 175.2 99.9 258.4 155.2 167.1 109.8 321.3 235.3 461.2 374.5l51.8 52.8c16.9 18 33 36.7 49.7 54.9 17.1 17.8 32.8 36.9 48.6 55.8 15.6 19.1 32.3 37.4 47.1 57.2 62.5 76.7 117.9 158.8 172.8 242 105.9 168.8 194.8 349.9 277 540.3-17.4-206.7-76.9-410.5-166.9-601.2-24.6-46.5-46.9-94.7-75.3-139.3-13.8-22.5-26.8-45.7-41.5-67.6l-44.9-65.5c-62.1-85.8-130-167.7-205.3-242.5-150.3-149.5-323.7-275.3-511.4-369.8-93.9-47.4-191-87.6-290.8-118.8-49.8-15.8-100.3-29.3-151.3-40-50.9-10.8-102.3-19.8-154.2-23.1M21793.9 21333.8c52.4-29.9 102.1-64 151-99.4 48.9-35.3 96.2-72.6 142.6-111.2 92.8-77.2 180.4-160.4 264.3-247.4 167.5-174.4 316.8-366.6 447-571.1 31.7-51.7 63.5-103.3 93.1-156.3 14.9-26.4 29.7-52.8 43.5-79.8 13.9-27 28.4-53.6 41.8-80.8 25.7-54.9 53.2-109 76-165.2 11.6-28 24.3-55.5 35-83.9l32.2-85c82.7-227.5 139.3-464.8 158.8-704.6-84.6 225.2-172.2 444.2-274.8 655.8-50.9 105.9-105.2 209.7-161.5 312.4-29.5 50.6-56.9 102.3-87.9 152-29.1 50.8-60.4 100.2-91.4 149.9-125.6 197.6-260.8 389.3-406.5 574.3-72.6 92.7-147.3 184.2-224.6 274-77.1 90.1-156 178.9-238.6 266.3" style="fill:#df932a;fill-opacity:1;fill-rule:nonzero;stroke:none" transform="matrix(.13333 0 0 -.13333 0 5333.333)"/><path d="m30550.9 21338.2-88.3-206.5-2308-5400.3c-1-2.3-3.1-3.7-5.6-3.7l-7832-505.1-152.4 251.8c-1.9 0-3.8 1.1-4.8 2.7-.9 1.6-1.1 3.7-.3 5.5l2689.1 5861.4c1 2.1 3.1 3.5 5.3 3.4l7544.7 242.7c1.9-.2 3.6-1.1 4.6-2.7 1.1-1.6 1.3-3.6.5-5.3z" style="fill:#7998d5;fill-opacity:1;fill-rule:nonzero;stroke:none" transform="matrix(.13333 0 0 -.13333 0 5333.333)"/><path d="M25358.7 13507c-19.2 5.8-38.2 11.7-57.3 17.8-177.2 56.3-344.6 120.6-504.9 184.2-14.3 5.6-28.5 11.2-42.7 16.9 1070.7 834.3-5 2399.7-5 2399.7s-870.2 923.8 489.1-171.7c1086.7-875.8 428.5-2022.2 120.8-2446.9" style="fill:#df932a;fill-opacity:1;fill-rule:nonzero;stroke:none" transform="matrix(.13333 0 0 -.13333 0 5333.333)"/><path d="M26769.1 13347.2c-89.9-5.3-179.3-7.8-267.8-7.8-142.7 0-282.9 6.7-418.6 20.3 878.4 852.9-117.3 2302.1-117.3 2302.1s-870.2 923.8 489.2-171.7c885.4-713.6 612.4-1606.7 314.5-2142.9" style="fill:#df932a;fill-opacity:1;fill-rule:nonzero;stroke:none" transform="matrix(.13333 0 0 -.13333 0 5333.333)"/><path d="m30550.9 21338.2-88.3-206.5-7403.4-133.9-205.3 349.6 7544.7 242.7c1.9-.2 3.6-1.1 4.6-2.7 1.1-1.6 1.3-3.6.5-5.3z" style="fill:#99b3e2;fill-opacity:1;fill-rule:nonzero;stroke:none" transform="matrix(.13333 0 0 -.13333 0 5333.333)"/><path d="m30556 21330.2-2249.1-5850.7c-1-2.3-3.1-3.7-5.6-3.7l-7984.3-253.3c-1.9 0-3.8 1.1-4.8 2.7-.9 1.6-1.1 3.7-.3 5.5l2689.1 5861.4c1 2.1 3.1 3.5 5.3 3.4l7544.6 242.7c1.9-.2 3.6-1.1 4.6-2.7 1.1-1.6 1.3-3.6.5-5.3" style="fill:#cbd7f1;fill-opacity:1;fill-rule:nonzero;stroke:none" transform="matrix(.13333 0 0 -.13333 0 5333.333)"/><path d="M27012.5 18620.8c0-362.7-725.8-1036.8-1313.3-898.6-382.5 90-344.3 684.1-179 1088.7 137.1 335.7 650 722.6 1043 722.6s449.3-550 449.3-912.7z" style="fill:none;stroke:#f5ecd8;stroke-width:240;stroke-linecap:butt;stroke-linejoin:miter;stroke-miterlimit:10;stroke-dasharray:none;stroke-opacity:1" transform="matrix(.13333 0 0 -.13333 0 5333.333)"/><path d="M25346.9 8394.1c-.5.3-.8.6-1.3.9.2 1.2.5 2.3.6 3.4l2.1-5.6zm-1103.2-1976.7c.6.7 1.4 1.2 2.1 1.8l2.8-.5zm1112 1984.5-1.6 1.1c-931.7 751.6-1772.5 1541.3-2621.3 2225.2-848.8 683.8-1705.6 1261.6-2303.7 1740.9-598.7 479.9-1030.4 823.5-1379.8 1095.9-349.5 272.3-616.7 473.2-885.9 667.6-269.3 194.3-541 382.3-815.9 526.6-275 144.2-552.9 244.8-834.7 264.3-9.6.7-19 1.1-28.6 1.6-25.2 1.3-50.1 1.9-75.2 1.9-530 0-1062.9-275.3-1464.2-659-213.8-204.5-390.4-439.8-520.8-677.9-130.6-238.1-214.7-478.9-243.8-694.1-8-58.7-11.7-115.7-11.7-171 0-351.2 152.3-646.8 376.1-1021.2 129.8-217.1 283.9-460.9 525-747 241.1-286.2 569.4-614.6 1047.8-1000.5 478.3-385.7 1106.6-829.3 1797.2-1254.9 690.5-425.7 1443.3-833.6 2170.8-1148.6 727.6-315 1429.6-537 2118.9-712.3 689.3-175.5 1365.8-304.3 2042.1-433.1 1.8-.4 3.5.1 4.8 1.2 145.6 124.5 291.5 249 424 384 132.5 135.1 251.8 280.4 344.2 446.3 184.6 331.7 261.6 745.1 338.4 1157.4.3 2.1-.5 4.2-2.1 5.6" style="fill:#4463b7;fill-opacity:1;fill-rule:nonzero;stroke:none" transform="matrix(.13333 0 0 -.13333 0 5333.333)"/><path d="M19875.3 7540.8c-11.2 0-22.5 2.6-33.2 8.1-9.5 5-969.8 505.6-2065.5 1193.6-1474.9 926.2-2479.9 1732.5-2987.1 2396.6-146.4 191.7-251.6 373.4-312.5 540-13.6 37.4 5.6 78.7 42.9 92.4 37.4 13.6 78.7-5.6 92.4-42.9 55.9-153 154-321.9 291.6-502.1 1186.8-1553.8 4966.6-3530 5004.7-3549.8 35.3-18.4 49-61.8 30.6-97.1-12.8-24.7-37.9-38.8-63.9-38.8" style="fill:#192543;fill-opacity:1;fill-rule:nonzero;stroke:none" transform="matrix(.13333 0 0 -.13333 0 5333.333)"/><path d="M14783.1 10993.3c-255.2 0-568.2 212.2-610.6 241.7-32.6 22.8-40.5 67.7-17.8 100.3 22.8 32.6 67.7 40.6 100.2 17.8 169-117.7 487.6-274.5 623.1-194.3 34.3 20.2 78.4 8.9 98.7-25.3 20.2-34.3 8.9-78.4-25.3-98.7-49.9-29.4-107.4-41.5-168.3-41.5M25345.6 8259.3c-17.8 0-35.5 6.5-49.5 19.7-14.2 13.4-1440.8 1359.7-3135.9 2799.2-2239.1 1901.4-3927 3100.7-4881.1 3468.4-37.1 14.3-55.6 55.9-41.3 93.1 14.3 37.1 55.9 55.6 93 41.3 983-378.8 2639.4-1554.2 4923.1-3493.4 1698-1441.9 3126.9-2790.5 3141.1-2804 29-27.3 30.2-72.9 2.9-101.8-14.1-15-33.2-22.5-52.3-22.5" style="fill:#192543;fill-opacity:1;fill-rule:nonzero;stroke:none" transform="matrix(.13333 0 0 -.13333 0 5333.333)"/><path d="M19987 15502.7s322.8 309.1 722.1 163.2c399.4-145.9 744.5-468.5 975.1-514.5 230.7-46.1-848.6-284.2-848.6-284.2l-848.6 314.9z" style="fill:#f89b72;fill-opacity:1;fill-rule:nonzero;stroke:none" transform="matrix(.13333 0 0 -.13333 0 5333.333)"/><path d="M26953 15398.7s975.3 582.1 1743.3 443.9l-230.4-518z" style="fill:#fab833;fill-opacity:1;fill-rule:nonzero;stroke:none" transform="matrix(.13333 0 0 -.13333 0 5333.333)"/><path d="M26488.3 6448.6c-29.6 0-57.3 18.4-67.8 47.8-12.9 36.1-309.7 887.4 132.1 1329.2 28.1 28.1 73.7 28.1 101.8 0s28.1-73.7 0-101.8c-377.3-377.3-101.1-1171-98.3-1179 13.4-37.5-6.2-78.6-43.6-92-8-2.8-16.2-4.2-24.2-4.2M27342.6 6560c-29.6 0-57.3 18.3-67.8 47.8-12.8 36-309.7 887.3 132.1 1329.2 28.1 28.1 73.7 28.1 101.8 0 28.2-28.2 28.2-73.7 0-101.9-377.3-377.3-101.1-1171-98.3-1179 13.4-37.4-6.2-78.6-43.6-92-8-2.8-16.2-4.1-24.2-4.1M20552.1 6216.7c-1.9 0-3.9.1-5.9.3-39.6 3.2-69.1 38-65.9 77.6 43.2 531.9-681.2 957.8-688.6 962.1-34.4 19.9-46.1 63.9-26.2 98.3 19.9 34.5 63.9 46.2 98.3 26.3 33.1-19.1 810.6-475.6 760-1098.4-3-37.6-34.6-66.2-71.7-66.2" style="fill:#214175;fill-opacity:1;fill-rule:nonzero;stroke:none" transform="matrix(.13333 0 0 -.13333 0 5333.333)"/><path d="M15029 6105.9c-145.8-42.9-291.9-85.7-438.3-128H6836.48c-104.8 41.1-209.44 83.9-313.76 128zM6885.3 8300l-1497.6 2293.2 107.17 70L6992.47 8370z" style="fill:#e0a393;fill-opacity:1;fill-rule:nonzero;stroke:none" transform="matrix(.13333 0 0 -.13333 0 5333.333)"/><path d="M11671.2 6006.9 10173.6 8300l107.2 70 1497.6-2293.1zM31693.9 8313.5l-1497.6 2293.1 107.2 70 1497.6-2293.1zM34918.4 12816.5l1387.4-2124.3 18.2-27.9-107-70.1-64 98-1387.2 2124.3zM36011.8 6930.7c-40.9-15.8-81.9-30.9-123.3-45.4l-903.4 1383.3-67.2 102.9 45.8 29.9 61.4 40.2 26.3-40.2 86.7-132.8z" style="fill:#e0a393;fill-opacity:1;fill-rule:nonzero;stroke:none" transform="matrix(.13333 0 0 -.13333 0 5333.333)"/><path d="M12857.1 30753.1c0-406.1-459.3-735.3-1025.7-735.3-566.5 0-1025.7 329.2-1025.7 735.3 0 406 459.2 735.2 1025.7 735.2 566.4 0 1025.7-329.2 1025.7-735.2M35464.9 18134.7c0-517-486.9-936.1-1087.5-936.1-600.5 0-1087.4 419.1-1087.4 936.1s486.9 936.2 1087.4 936.2c600.6 0 1087.5-419.2 1087.5-936.2" style="fill:#f5ecd8;fill-opacity:1;fill-rule:nonzero;stroke:none" transform="matrix(.13333 0 0 -.13333 0 5333.333)"/></svg>